<mxfile host="app.diagrams.net" modified="2021-01-08T04:20:57.139Z" agent="5.0 (X11)" etag="DamgBqfGnsD5zVh81n4x" version="14.1.8" type="github">
  <diagram id="6uvNg3zNP8__nMlgh6hb" name="Page-1">
    <mxGraphModel dx="1564" dy="844" grid="1" gridSize="10" guides="1" tooltips="1" connect="1" arrows="1" fold="1" page="1" pageScale="1" pageWidth="1100" pageHeight="850" math="0" shadow="0">
      <root>
        <mxCell id="0" />
        <mxCell id="1" parent="0" />
        <UserObject label="%date{ddd mmm dd yyyy HH:MM:ss}%" placeholders="1" id="Rtt-FSI7nri-VDeofCex-1">
          <mxCell style="text;html=1;strokeColor=none;fillColor=none;align=center;verticalAlign=middle;whiteSpace=wrap;overflow=hidden;" parent="1" vertex="1">
            <mxGeometry x="670" y="22" width="160" height="20" as="geometry" />
          </mxCell>
        </UserObject>
        <mxCell id="i-aksDMoRaEIVy0TGcqC-2" value="" style="edgeStyle=orthogonalEdgeStyle;rounded=0;orthogonalLoop=1;jettySize=auto;html=1;" edge="1" parent="1" source="Rtt-FSI7nri-VDeofCex-2" target="i-aksDMoRaEIVy0TGcqC-1">
          <mxGeometry relative="1" as="geometry" />
        </mxCell>
        <mxCell id="Rtt-FSI7nri-VDeofCex-2" value="&lt;font style=&quot;font-size: 28px&quot;&gt;Start&lt;/font&gt;" style="rounded=1;whiteSpace=wrap;html=1;fillColor=#d5e8d4;strokeColor=#82b366;" parent="1" vertex="1">
          <mxGeometry x="240" y="52" width="120" height="60" as="geometry" />
        </mxCell>
        <mxCell id="i-aksDMoRaEIVy0TGcqC-4" value="" style="edgeStyle=orthogonalEdgeStyle;rounded=0;orthogonalLoop=1;jettySize=auto;html=1;" edge="1" parent="1" source="i-aksDMoRaEIVy0TGcqC-1" target="i-aksDMoRaEIVy0TGcqC-3">
          <mxGeometry relative="1" as="geometry" />
        </mxCell>
        <mxCell id="i-aksDMoRaEIVy0TGcqC-1" value="&lt;div style=&quot;font-size: 28px&quot;&gt;&lt;font style=&quot;font-size: 28px&quot;&gt;Login&lt;/font&gt;&lt;/div&gt;" style="rounded=1;whiteSpace=wrap;html=1;" vertex="1" parent="1">
          <mxGeometry x="400" y="52" width="120" height="60" as="geometry" />
        </mxCell>
        <mxCell id="i-aksDMoRaEIVy0TGcqC-6" value="" style="edgeStyle=orthogonalEdgeStyle;rounded=0;orthogonalLoop=1;jettySize=auto;html=1;" edge="1" parent="1" source="i-aksDMoRaEIVy0TGcqC-3" target="i-aksDMoRaEIVy0TGcqC-5">
          <mxGeometry relative="1" as="geometry" />
        </mxCell>
        <mxCell id="i-aksDMoRaEIVy0TGcqC-3" value="Make the box shown on screen" style="rounded=1;whiteSpace=wrap;html=1;" vertex="1" parent="1">
          <mxGeometry x="400" y="172" width="120" height="60" as="geometry" />
        </mxCell>
        <mxCell id="i-aksDMoRaEIVy0TGcqC-10" value="" style="edgeStyle=orthogonalEdgeStyle;rounded=0;orthogonalLoop=1;jettySize=auto;html=1;" edge="1" parent="1" source="i-aksDMoRaEIVy0TGcqC-5" target="i-aksDMoRaEIVy0TGcqC-7">
          <mxGeometry relative="1" as="geometry" />
        </mxCell>
        <mxCell id="i-aksDMoRaEIVy0TGcqC-5" value="Grab the items from the chute" style="rounded=1;whiteSpace=wrap;html=1;" vertex="1" parent="1">
          <mxGeometry x="560" y="172" width="120" height="60" as="geometry" />
        </mxCell>
        <mxCell id="i-aksDMoRaEIVy0TGcqC-12" value="" style="edgeStyle=orthogonalEdgeStyle;rounded=0;orthogonalLoop=1;jettySize=auto;html=1;" edge="1" parent="1" source="i-aksDMoRaEIVy0TGcqC-7" target="i-aksDMoRaEIVy0TGcqC-11">
          <mxGeometry relative="1" as="geometry" />
        </mxCell>
        <mxCell id="i-aksDMoRaEIVy0TGcqC-7" value="Scan one item" style="rounded=1;whiteSpace=wrap;html=1;" vertex="1" parent="1">
          <mxGeometry x="560" y="292" width="120" height="60" as="geometry" />
        </mxCell>
        <mxCell id="i-aksDMoRaEIVy0TGcqC-14" value="" style="edgeStyle=orthogonalEdgeStyle;rounded=0;orthogonalLoop=1;jettySize=auto;html=1;fillColor=#f8cecc;strokeColor=#b85450;" edge="1" parent="1" source="i-aksDMoRaEIVy0TGcqC-15" target="i-aksDMoRaEIVy0TGcqC-13">
          <mxGeometry relative="1" as="geometry" />
        </mxCell>
        <mxCell id="i-aksDMoRaEIVy0TGcqC-18" value="" style="edgeStyle=orthogonalEdgeStyle;rounded=0;orthogonalLoop=1;jettySize=auto;html=1;endArrow=classic;endFill=1;fillColor=#d5e8d4;strokeColor=#82b366;" edge="1" parent="1" source="i-aksDMoRaEIVy0TGcqC-19" target="i-aksDMoRaEIVy0TGcqC-17">
          <mxGeometry relative="1" as="geometry" />
        </mxCell>
        <mxCell id="i-aksDMoRaEIVy0TGcqC-11" value="Does it have a transparency code or serial number?" style="rhombus;whiteSpace=wrap;html=1;rounded=1;fillColor=#dae8fc;strokeColor=#6c8ebf;" vertex="1" parent="1">
          <mxGeometry x="745" y="282" width="130" height="80" as="geometry" />
        </mxCell>
        <mxCell id="i-aksDMoRaEIVy0TGcqC-23" value="" style="edgeStyle=orthogonalEdgeStyle;curved=1;orthogonalLoop=1;jettySize=auto;html=1;endArrow=classic;endFill=1;" edge="1" parent="1" source="i-aksDMoRaEIVy0TGcqC-13" target="i-aksDMoRaEIVy0TGcqC-22">
          <mxGeometry relative="1" as="geometry" />
        </mxCell>
        <mxCell id="i-aksDMoRaEIVy0TGcqC-13" value="Place that item in the box" style="whiteSpace=wrap;html=1;rounded=1;" vertex="1" parent="1">
          <mxGeometry x="750" y="432" width="120" height="60" as="geometry" />
        </mxCell>
        <mxCell id="i-aksDMoRaEIVy0TGcqC-15" value="&lt;div&gt;No&lt;/div&gt;" style="text;html=1;align=center;verticalAlign=middle;resizable=0;points=[];autosize=1;fillColor=#f8cecc;strokeColor=#b85450;" vertex="1" parent="1">
          <mxGeometry x="795" y="382" width="30" height="20" as="geometry" />
        </mxCell>
        <mxCell id="i-aksDMoRaEIVy0TGcqC-16" value="" style="edgeStyle=orthogonalEdgeStyle;rounded=0;orthogonalLoop=1;jettySize=auto;html=1;endArrow=none;endFill=0;fillColor=#f8cecc;strokeColor=#b85450;" edge="1" parent="1" source="i-aksDMoRaEIVy0TGcqC-11" target="i-aksDMoRaEIVy0TGcqC-15">
          <mxGeometry relative="1" as="geometry">
            <mxPoint x="810" y="362" as="sourcePoint" />
            <mxPoint x="810" y="412" as="targetPoint" />
          </mxGeometry>
        </mxCell>
        <mxCell id="i-aksDMoRaEIVy0TGcqC-17" value="Scan the transparency code or serial number" style="whiteSpace=wrap;html=1;rounded=1;" vertex="1" parent="1">
          <mxGeometry x="965" y="292" width="120" height="60" as="geometry" />
        </mxCell>
        <mxCell id="i-aksDMoRaEIVy0TGcqC-19" value="Yes" style="text;html=1;align=center;verticalAlign=middle;resizable=0;points=[];autosize=1;fillColor=#d5e8d4;strokeColor=#82b366;" vertex="1" parent="1">
          <mxGeometry x="895" y="312" width="40" height="20" as="geometry" />
        </mxCell>
        <mxCell id="i-aksDMoRaEIVy0TGcqC-20" value="" style="edgeStyle=orthogonalEdgeStyle;rounded=0;orthogonalLoop=1;jettySize=auto;html=1;endArrow=none;endFill=0;fillColor=#d5e8d4;strokeColor=#82b366;" edge="1" parent="1" source="i-aksDMoRaEIVy0TGcqC-11" target="i-aksDMoRaEIVy0TGcqC-19">
          <mxGeometry relative="1" as="geometry">
            <mxPoint x="875" y="322" as="sourcePoint" />
            <mxPoint x="965" y="322" as="targetPoint" />
          </mxGeometry>
        </mxCell>
        <mxCell id="i-aksDMoRaEIVy0TGcqC-21" value="" style="endArrow=classic;html=1;edgeStyle=orthogonalEdgeStyle;entryX=1;entryY=0.5;entryDx=0;entryDy=0;curved=1;" edge="1" parent="1" target="i-aksDMoRaEIVy0TGcqC-13">
          <mxGeometry width="50" height="50" relative="1" as="geometry">
            <mxPoint x="1025" y="352" as="sourcePoint" />
            <mxPoint x="985" y="422" as="targetPoint" />
            <Array as="points">
              <mxPoint x="1025" y="462" />
            </Array>
          </mxGeometry>
        </mxCell>
        <mxCell id="i-aksDMoRaEIVy0TGcqC-24" value="" style="edgeStyle=orthogonalEdgeStyle;curved=1;orthogonalLoop=1;jettySize=auto;html=1;endArrow=classic;endFill=1;fillColor=#d5e8d4;strokeColor=#82b366;" edge="1" parent="1" source="i-aksDMoRaEIVy0TGcqC-25" target="i-aksDMoRaEIVy0TGcqC-7">
          <mxGeometry relative="1" as="geometry" />
        </mxCell>
        <mxCell id="i-aksDMoRaEIVy0TGcqC-30" value="" style="edgeStyle=orthogonalEdgeStyle;curved=1;orthogonalLoop=1;jettySize=auto;html=1;endArrow=classic;endFill=1;fillColor=#f8cecc;strokeColor=#b85450;" edge="1" parent="1" source="i-aksDMoRaEIVy0TGcqC-31" target="i-aksDMoRaEIVy0TGcqC-29">
          <mxGeometry relative="1" as="geometry" />
        </mxCell>
        <mxCell id="i-aksDMoRaEIVy0TGcqC-22" value="Are there more items?" style="rhombus;whiteSpace=wrap;html=1;rounded=1;fillColor=#dae8fc;strokeColor=#6c8ebf;" vertex="1" parent="1">
          <mxGeometry x="562.5" y="422" width="115" height="80" as="geometry" />
        </mxCell>
        <mxCell id="i-aksDMoRaEIVy0TGcqC-25" value="Yes" style="text;html=1;align=center;verticalAlign=middle;resizable=0;points=[];autosize=1;fillColor=#d5e8d4;strokeColor=#82b366;" vertex="1" parent="1">
          <mxGeometry x="600" y="382" width="40" height="20" as="geometry" />
        </mxCell>
        <mxCell id="i-aksDMoRaEIVy0TGcqC-26" value="" style="edgeStyle=orthogonalEdgeStyle;curved=1;orthogonalLoop=1;jettySize=auto;html=1;endArrow=none;endFill=0;fillColor=#d5e8d4;strokeColor=#82b366;" edge="1" parent="1" source="i-aksDMoRaEIVy0TGcqC-22" target="i-aksDMoRaEIVy0TGcqC-25">
          <mxGeometry relative="1" as="geometry">
            <mxPoint x="620" y="422" as="sourcePoint" />
            <mxPoint x="620" y="352" as="targetPoint" />
          </mxGeometry>
        </mxCell>
        <mxCell id="i-aksDMoRaEIVy0TGcqC-34" value="" style="edgeStyle=orthogonalEdgeStyle;curved=1;orthogonalLoop=1;jettySize=auto;html=1;endArrow=classic;endFill=1;" edge="1" parent="1" source="i-aksDMoRaEIVy0TGcqC-29" target="i-aksDMoRaEIVy0TGcqC-33">
          <mxGeometry relative="1" as="geometry" />
        </mxCell>
        <mxCell id="i-aksDMoRaEIVy0TGcqC-36" value="" style="edgeStyle=orthogonalEdgeStyle;curved=1;orthogonalLoop=1;jettySize=auto;html=1;endArrow=classic;endFill=1;fillColor=#d5e8d4;strokeColor=#82b366;" edge="1" parent="1" source="i-aksDMoRaEIVy0TGcqC-37" target="i-aksDMoRaEIVy0TGcqC-35">
          <mxGeometry relative="1" as="geometry" />
        </mxCell>
        <mxCell id="i-aksDMoRaEIVy0TGcqC-29" value="Is there a P-slip?" style="rhombus;whiteSpace=wrap;html=1;rounded=1;strokeColor=#6c8ebf;fillColor=#dae8fc;" vertex="1" parent="1">
          <mxGeometry x="580" y="582" width="80" height="80" as="geometry" />
        </mxCell>
        <mxCell id="i-aksDMoRaEIVy0TGcqC-31" value="&lt;div&gt;No&lt;/div&gt;" style="text;html=1;align=center;verticalAlign=middle;resizable=0;points=[];autosize=1;fillColor=#f8cecc;strokeColor=#b85450;" vertex="1" parent="1">
          <mxGeometry x="605" y="522" width="30" height="20" as="geometry" />
        </mxCell>
        <mxCell id="i-aksDMoRaEIVy0TGcqC-32" value="" style="edgeStyle=orthogonalEdgeStyle;curved=1;orthogonalLoop=1;jettySize=auto;html=1;endArrow=none;endFill=0;fillColor=#f8cecc;strokeColor=#b85450;" edge="1" parent="1" source="i-aksDMoRaEIVy0TGcqC-22" target="i-aksDMoRaEIVy0TGcqC-31">
          <mxGeometry relative="1" as="geometry">
            <mxPoint x="620" y="502" as="sourcePoint" />
            <mxPoint x="620" y="581.9999999999999" as="targetPoint" />
          </mxGeometry>
        </mxCell>
        <mxCell id="i-aksDMoRaEIVy0TGcqC-41" value="" style="edgeStyle=orthogonalEdgeStyle;curved=1;orthogonalLoop=1;jettySize=auto;html=1;endArrow=classicThin;endFill=1;" edge="1" parent="1" source="i-aksDMoRaEIVy0TGcqC-33" target="i-aksDMoRaEIVy0TGcqC-40">
          <mxGeometry relative="1" as="geometry" />
        </mxCell>
        <mxCell id="i-aksDMoRaEIVy0TGcqC-33" value="Add dunage if needed and seal the box" style="whiteSpace=wrap;html=1;rounded=1;" vertex="1" parent="1">
          <mxGeometry x="400" y="592" width="120" height="60" as="geometry" />
        </mxCell>
        <mxCell id="i-aksDMoRaEIVy0TGcqC-35" value="Scan the P-slip and place it in the box" style="whiteSpace=wrap;html=1;rounded=1;" vertex="1" parent="1">
          <mxGeometry x="560" y="752" width="120" height="60" as="geometry" />
        </mxCell>
        <mxCell id="i-aksDMoRaEIVy0TGcqC-37" value="Yes" style="text;html=1;align=center;verticalAlign=middle;resizable=0;points=[];autosize=1;fillColor=#d5e8d4;strokeColor=#82b366;" vertex="1" parent="1">
          <mxGeometry x="600" y="692" width="40" height="20" as="geometry" />
        </mxCell>
        <mxCell id="i-aksDMoRaEIVy0TGcqC-38" value="" style="edgeStyle=orthogonalEdgeStyle;curved=1;orthogonalLoop=1;jettySize=auto;html=1;endArrow=none;endFill=0;fillColor=#d5e8d4;strokeColor=#82b366;" edge="1" parent="1" source="i-aksDMoRaEIVy0TGcqC-29" target="i-aksDMoRaEIVy0TGcqC-37">
          <mxGeometry relative="1" as="geometry">
            <mxPoint x="620" y="661.9999999999999" as="sourcePoint" />
            <mxPoint x="620" y="752" as="targetPoint" />
          </mxGeometry>
        </mxCell>
        <mxCell id="i-aksDMoRaEIVy0TGcqC-39" value="" style="curved=1;endArrow=classic;html=1;exitX=0;exitY=0.5;exitDx=0;exitDy=0;entryX=0.5;entryY=1;entryDx=0;entryDy=0;" edge="1" parent="1" source="i-aksDMoRaEIVy0TGcqC-35" target="i-aksDMoRaEIVy0TGcqC-33">
          <mxGeometry width="50" height="50" relative="1" as="geometry">
            <mxPoint x="510" y="692" as="sourcePoint" />
            <mxPoint x="560" y="642" as="targetPoint" />
            <Array as="points">
              <mxPoint x="460" y="782" />
            </Array>
          </mxGeometry>
        </mxCell>
        <mxCell id="i-aksDMoRaEIVy0TGcqC-43" value="" style="edgeStyle=orthogonalEdgeStyle;curved=1;orthogonalLoop=1;jettySize=auto;html=1;endArrow=classicThin;endFill=1;fillColor=#d5e8d4;strokeColor=#82b366;" edge="1" parent="1" source="i-aksDMoRaEIVy0TGcqC-44" target="i-aksDMoRaEIVy0TGcqC-42">
          <mxGeometry relative="1" as="geometry" />
        </mxCell>
        <mxCell id="i-aksDMoRaEIVy0TGcqC-49" value="" style="edgeStyle=orthogonalEdgeStyle;curved=1;orthogonalLoop=1;jettySize=auto;html=1;endArrow=none;endFill=0;fillColor=#f8cecc;strokeColor=#b85450;" edge="1" parent="1" source="i-aksDMoRaEIVy0TGcqC-50">
          <mxGeometry relative="1" as="geometry">
            <mxPoint x="300" y="512" as="targetPoint" />
          </mxGeometry>
        </mxCell>
        <mxCell id="i-aksDMoRaEIVy0TGcqC-40" value="&lt;div&gt;Does&lt;/div&gt;&lt;div&gt;this package require heavy labels?&lt;/div&gt;" style="rhombus;whiteSpace=wrap;html=1;rounded=1;fillColor=#dae8fc;strokeColor=#6c8ebf;" vertex="1" parent="1">
          <mxGeometry x="230" y="582" width="140" height="80" as="geometry" />
        </mxCell>
        <mxCell id="i-aksDMoRaEIVy0TGcqC-42" value="Place at least 3 heavy labels on just as many sides of the box" style="whiteSpace=wrap;html=1;rounded=1;" vertex="1" parent="1">
          <mxGeometry x="20" y="592" width="120" height="60" as="geometry" />
        </mxCell>
        <mxCell id="i-aksDMoRaEIVy0TGcqC-44" value="Yes" style="text;html=1;align=center;verticalAlign=middle;resizable=0;points=[];autosize=1;fillColor=#d5e8d4;strokeColor=#82b366;" vertex="1" parent="1">
          <mxGeometry x="170" y="612" width="40" height="20" as="geometry" />
        </mxCell>
        <mxCell id="i-aksDMoRaEIVy0TGcqC-45" value="" style="edgeStyle=orthogonalEdgeStyle;curved=1;orthogonalLoop=1;jettySize=auto;html=1;endArrow=none;endFill=0;fillColor=#d5e8d4;strokeColor=#82b366;" edge="1" parent="1" source="i-aksDMoRaEIVy0TGcqC-40" target="i-aksDMoRaEIVy0TGcqC-44">
          <mxGeometry relative="1" as="geometry">
            <mxPoint x="230" y="622" as="sourcePoint" />
            <mxPoint x="140" y="622" as="targetPoint" />
          </mxGeometry>
        </mxCell>
        <mxCell id="i-aksDMoRaEIVy0TGcqC-55" value="" style="edgeStyle=orthogonalEdgeStyle;curved=1;orthogonalLoop=1;jettySize=auto;html=1;endArrow=classic;endFill=1;fillColor=#f8cecc;strokeColor=#b85450;" edge="1" parent="1" source="i-aksDMoRaEIVy0TGcqC-61" target="i-aksDMoRaEIVy0TGcqC-54">
          <mxGeometry relative="1" as="geometry" />
        </mxCell>
        <mxCell id="i-aksDMoRaEIVy0TGcqC-57" value="" style="edgeStyle=orthogonalEdgeStyle;curved=1;orthogonalLoop=1;jettySize=auto;html=1;endArrow=classic;endFill=1;fillColor=#d5e8d4;strokeColor=#82b366;" edge="1" parent="1" source="i-aksDMoRaEIVy0TGcqC-59" target="i-aksDMoRaEIVy0TGcqC-56">
          <mxGeometry relative="1" as="geometry" />
        </mxCell>
        <mxCell id="i-aksDMoRaEIVy0TGcqC-48" value="&lt;div&gt;Does&lt;/div&gt;&lt;div&gt;this package require a&lt;/div&gt;&lt;div&gt;battery label?&lt;/div&gt;" style="rhombus;whiteSpace=wrap;html=1;rounded=1;fillColor=#dae8fc;strokeColor=#6c8ebf;" vertex="1" parent="1">
          <mxGeometry x="230" y="430" width="140" height="80" as="geometry" />
        </mxCell>
        <mxCell id="i-aksDMoRaEIVy0TGcqC-52" value="" style="edgeStyle=orthogonalEdgeStyle;curved=1;orthogonalLoop=1;jettySize=auto;html=1;endArrow=classic;endFill=1;fillColor=#f8cecc;strokeColor=#b85450;" edge="1" parent="1" source="i-aksDMoRaEIVy0TGcqC-50" target="i-aksDMoRaEIVy0TGcqC-48">
          <mxGeometry relative="1" as="geometry">
            <mxPoint x="300" y="512" as="targetPoint" />
          </mxGeometry>
        </mxCell>
        <mxCell id="i-aksDMoRaEIVy0TGcqC-50" value="&lt;div&gt;No&lt;/div&gt;" style="text;html=1;align=center;verticalAlign=middle;resizable=0;points=[];autosize=1;fillColor=#f8cecc;strokeColor=#b85450;" vertex="1" parent="1">
          <mxGeometry x="285" y="542" width="30" height="20" as="geometry" />
        </mxCell>
        <mxCell id="i-aksDMoRaEIVy0TGcqC-51" value="" style="edgeStyle=orthogonalEdgeStyle;curved=1;orthogonalLoop=1;jettySize=auto;html=1;endArrow=none;endFill=0;fillColor=#f8cecc;strokeColor=#b85450;" edge="1" parent="1" source="i-aksDMoRaEIVy0TGcqC-40" target="i-aksDMoRaEIVy0TGcqC-50">
          <mxGeometry relative="1" as="geometry">
            <mxPoint x="300" y="582" as="sourcePoint" />
            <mxPoint x="300" y="502" as="targetPoint" />
          </mxGeometry>
        </mxCell>
        <mxCell id="i-aksDMoRaEIVy0TGcqC-53" value="" style="endArrow=classic;html=1;entryX=0;entryY=0.5;entryDx=0;entryDy=0;exitX=0.5;exitY=0;exitDx=0;exitDy=0;curved=1;" edge="1" parent="1" source="i-aksDMoRaEIVy0TGcqC-42" target="i-aksDMoRaEIVy0TGcqC-48">
          <mxGeometry width="50" height="50" relative="1" as="geometry">
            <mxPoint x="350" y="562" as="sourcePoint" />
            <mxPoint x="400" y="512" as="targetPoint" />
            <Array as="points">
              <mxPoint x="80" y="470" />
            </Array>
          </mxGeometry>
        </mxCell>
        <mxCell id="i-aksDMoRaEIVy0TGcqC-54" value="Scan and apply a sp00 to the box, then push it on the conveyor" style="whiteSpace=wrap;html=1;rounded=1;" vertex="1" parent="1">
          <mxGeometry x="240" y="280" width="120" height="60" as="geometry" />
        </mxCell>
        <mxCell id="i-aksDMoRaEIVy0TGcqC-56" value="Apply the appropriate battery label and scan it" style="whiteSpace=wrap;html=1;rounded=1;" vertex="1" parent="1">
          <mxGeometry x="430" y="440" width="120" height="60" as="geometry" />
        </mxCell>
        <mxCell id="i-aksDMoRaEIVy0TGcqC-59" value="Yes" style="text;html=1;align=center;verticalAlign=middle;resizable=0;points=[];autosize=1;fillColor=#d5e8d4;strokeColor=#82b366;" vertex="1" parent="1">
          <mxGeometry x="377" y="460" width="40" height="20" as="geometry" />
        </mxCell>
        <mxCell id="i-aksDMoRaEIVy0TGcqC-60" value="" style="edgeStyle=orthogonalEdgeStyle;curved=1;orthogonalLoop=1;jettySize=auto;html=1;endArrow=none;endFill=0;fillColor=#d5e8d4;strokeColor=#82b366;" edge="1" parent="1" source="i-aksDMoRaEIVy0TGcqC-48" target="i-aksDMoRaEIVy0TGcqC-59">
          <mxGeometry relative="1" as="geometry">
            <mxPoint x="370" y="470" as="sourcePoint" />
            <mxPoint x="430" y="470" as="targetPoint" />
            <Array as="points">
              <mxPoint x="377" y="470" />
              <mxPoint x="377" y="470" />
            </Array>
          </mxGeometry>
        </mxCell>
        <mxCell id="i-aksDMoRaEIVy0TGcqC-61" value="&lt;div&gt;No&lt;/div&gt;" style="text;html=1;align=center;verticalAlign=middle;resizable=0;points=[];autosize=1;fillColor=#f8cecc;strokeColor=#b85450;" vertex="1" parent="1">
          <mxGeometry x="285" y="382" width="30" height="20" as="geometry" />
        </mxCell>
        <mxCell id="i-aksDMoRaEIVy0TGcqC-62" value="" style="edgeStyle=orthogonalEdgeStyle;curved=1;orthogonalLoop=1;jettySize=auto;html=1;endArrow=none;endFill=0;fillColor=#f8cecc;strokeColor=#b85450;" edge="1" parent="1" source="i-aksDMoRaEIVy0TGcqC-48" target="i-aksDMoRaEIVy0TGcqC-61">
          <mxGeometry relative="1" as="geometry">
            <mxPoint x="300" y="430" as="sourcePoint" />
            <mxPoint x="300" y="340" as="targetPoint" />
          </mxGeometry>
        </mxCell>
        <mxCell id="i-aksDMoRaEIVy0TGcqC-63" value="" style="endArrow=classic;html=1;exitX=0.5;exitY=0;exitDx=0;exitDy=0;entryX=1;entryY=0.5;entryDx=0;entryDy=0;curved=1;" edge="1" parent="1" source="i-aksDMoRaEIVy0TGcqC-56" target="i-aksDMoRaEIVy0TGcqC-54">
          <mxGeometry width="50" height="50" relative="1" as="geometry">
            <mxPoint x="440" y="392" as="sourcePoint" />
            <mxPoint x="490" y="342" as="targetPoint" />
            <Array as="points">
              <mxPoint x="490" y="310" />
            </Array>
          </mxGeometry>
        </mxCell>
        <mxCell id="i-aksDMoRaEIVy0TGcqC-64" value="" style="endArrow=classic;html=1;exitX=0.5;exitY=0;exitDx=0;exitDy=0;entryX=0;entryY=0.5;entryDx=0;entryDy=0;curved=1;" edge="1" parent="1" source="i-aksDMoRaEIVy0TGcqC-54" target="i-aksDMoRaEIVy0TGcqC-3">
          <mxGeometry width="50" height="50" relative="1" as="geometry">
            <mxPoint x="290" y="272" as="sourcePoint" />
            <mxPoint x="340" y="222" as="targetPoint" />
            <Array as="points">
              <mxPoint x="300" y="202" />
            </Array>
          </mxGeometry>
        </mxCell>
      </root>
    </mxGraphModel>
  </diagram>
</mxfile>
